<!DOCTYPE svg PUBLIC "-//W3C//DTD SVG 1.0//EN" "http://www.w3.org/TR/2001/REC-SVG-20010904/DTD/svg10.dtd">
<svg width="500" height="500">
<ellipse cx="250" cy="250" rx="395.5" ry="395.5" /><ellipse cx="250" cy="250" rx="390.65" ry="390.65" /><ellipse cx="250" cy="250" rx="389.15" ry="389.15" /><ellipse cx="250" cy="250" rx="385.95" ry="385.95" /><ellipse cx="250" cy="250" rx="383.05" ry="383.05" /><ellipse cx="250" cy="250" rx="378.3" ry="378.3" /><ellipse cx="250" cy="250" rx="374.35" ry="374.35" /><ellipse cx="250" cy="250" rx="371.90000000000003" ry="371.90000000000003" /><ellipse cx="250" cy="250" rx="371.1" ry="371.1" /><ellipse cx="250" cy="250" rx="368.6" ry="368.6" /><ellipse cx="250" cy="250" rx="368.20000000000005" ry="368.20000000000005" /><ellipse cx="250" cy="250" rx="365.35" ry="365.35" /><ellipse cx="250" cy="250" rx="363.85" ry="363.85" /><ellipse cx="250" cy="250" rx="362.40000000000003" ry="362.40000000000003" /><ellipse cx="250" cy="250" rx="359.70000000000005" ry="359.70000000000005" /><ellipse cx="250" cy="250" rx="357.6" ry="357.6" /><ellipse cx="250" cy="250" rx="354.0" ry="354.0" /><ellipse cx="250" cy="250" rx="351.05" ry="351.05" /><ellipse cx="250" cy="250" rx="346.85" ry="346.85" /><ellipse cx="250" cy="250" rx="342.45000000000005" ry="342.45000000000005" /><ellipse cx="250" cy="250" rx="337.50000000000006" ry="337.50000000000006" /><ellipse cx="250" cy="250" rx="336.25000000000006" ry="336.25000000000006" /><ellipse cx="250" cy="250" rx="333.80000000000007" ry="333.80000000000007" /><ellipse cx="250" cy="250" rx="332.05000000000007" ry="332.05000000000007" /><ellipse cx="250" cy="250" rx="330.75000000000006" ry="330.75000000000006" /><ellipse cx="250" cy="250" rx="327.65000000000003" ry="327.65000000000003" /><ellipse cx="250" cy="250" rx="324.40000000000003" ry="324.40000000000003" /><ellipse cx="250" cy="250" rx="323.65000000000003" ry="323.65000000000003" /><ellipse cx="250" cy="250" rx="321.45000000000005" ry="321.45000000000005" /><ellipse cx="250" cy="250" rx="317.45000000000005" ry="317.45000000000005" /><ellipse cx="250" cy="250" rx="315.1" ry="315.1" /><ellipse cx="250" cy="250" rx="314.95000000000005" ry="314.95000000000005" /><ellipse cx="250" cy="250" rx="314.20000000000005" ry="314.20000000000005" /><ellipse cx="250" cy="250" rx="314.15000000000003" ry="314.15000000000003" /><ellipse cx="250" cy="250" rx="311.45000000000005" ry="311.45000000000005" /><ellipse cx="250" cy="250" rx="307.55000000000007" ry="307.55000000000007" /><ellipse cx="250" cy="250" rx="307.00000000000006" ry="307.00000000000006" /><ellipse cx="250" cy="250" rx="304.45000000000005" ry="304.45000000000005" /><ellipse cx="250" cy="250" rx="302.35" ry="302.35" /><ellipse cx="250" cy="250" rx="299.40000000000003" ry="299.40000000000003" /><ellipse cx="250" cy="250" rx="299.05" ry="299.05" /><ellipse cx="250" cy="250" rx="296.0" ry="296.0" /><ellipse cx="250" cy="250" rx="293.9" ry="293.9" /><ellipse cx="250" cy="250" rx="291.54999999999995" ry="291.54999999999995" /><ellipse cx="250" cy="250" rx="290.9" ry="290.9" /><ellipse cx="250" cy="250" rx="290.04999999999995" ry="290.04999999999995" /><ellipse cx="250" cy="250" rx="286.49999999999994" ry="286.49999999999994" /><ellipse cx="250" cy="250" rx="282.6499999999999" ry="282.6499999999999" /><ellipse cx="250" cy="250" rx="277.99999999999994" ry="277.99999999999994" /><ellipse cx="250" cy="250" rx="274.99999999999994" ry="274.99999999999994" /><ellipse cx="250" cy="250" rx="270.34999999999997" ry="270.34999999999997" /><ellipse cx="250" cy="250" rx="267.24999999999994" ry="267.24999999999994" /><ellipse cx="250" cy="250" rx="266.29999999999995" ry="266.29999999999995" /><ellipse cx="250" cy="250" rx="261.65" ry="261.65" /><ellipse cx="250" cy="250" rx="260.7" ry="260.7" /><ellipse cx="250" cy="250" rx="257.15" ry="257.15" /><ellipse cx="250" cy="250" rx="252.45" ry="252.45" /><ellipse cx="250" cy="250" rx="250.0" ry="250.0" /><ellipse cx="250" cy="250" rx="247.15" ry="247.15" /><ellipse cx="250" cy="250" rx="246.3" ry="246.3" /><ellipse cx="250" cy="250" rx="245.70000000000002" ry="245.70000000000002" /><ellipse cx="250" cy="250" rx="244.55" ry="244.55" /><ellipse cx="250" cy="250" rx="242.3" ry="242.3" /><ellipse cx="250" cy="250" rx="241.70000000000002" ry="241.70000000000002" /><ellipse cx="250" cy="250" rx="236.8" ry="236.8" /><ellipse cx="250" cy="250" rx="235.95000000000002" ry="235.95000000000002" /><ellipse cx="250" cy="250" rx="231.20000000000002" ry="231.20000000000002" /><ellipse cx="250" cy="250" rx="226.45000000000002" ry="226.45000000000002" /><ellipse cx="250" cy="250" rx="225.00000000000003" ry="225.00000000000003" /><ellipse cx="250" cy="250" rx="223.45000000000002" ry="223.45000000000002" /><ellipse cx="250" cy="250" rx="219.75000000000003" ry="219.75000000000003" /><ellipse cx="250" cy="250" rx="216.60000000000002" ry="216.60000000000002" /><ellipse cx="250" cy="250" rx="214.70000000000002" ry="214.70000000000002" /><ellipse cx="250" cy="250" rx="212.70000000000002" ry="212.70000000000002" /><ellipse cx="250" cy="250" rx="209.3" ry="209.3" /><ellipse cx="250" cy="250" rx="206.15" ry="206.15" /><ellipse cx="250" cy="250" rx="201.5" ry="201.5" /><ellipse cx="250" cy="250" rx="196.8" ry="196.8" /><ellipse cx="250" cy="250" rx="192.10000000000002" ry="192.10000000000002" /><ellipse cx="250" cy="250" rx="192.00000000000003" ry="192.00000000000003" /><ellipse cx="250" cy="250" rx="191.40000000000003" ry="191.40000000000003" /><ellipse cx="250" cy="250" rx="191.05000000000004" ry="191.05000000000004" /><ellipse cx="250" cy="250" rx="190.80000000000004" ry="190.80000000000004" /><ellipse cx="250" cy="250" rx="188.55000000000004" ry="188.55000000000004" /><ellipse cx="250" cy="250" rx="185.40000000000003" ry="185.40000000000003" /><ellipse cx="250" cy="250" rx="183.25000000000003" ry="183.25000000000003" /><ellipse cx="250" cy="250" rx="180.65000000000003" ry="180.65000000000003" /><ellipse cx="250" cy="250" rx="178.50000000000003" ry="178.50000000000003" /><ellipse cx="250" cy="250" rx="175.35000000000002" ry="175.35000000000002" /><ellipse cx="250" cy="250" rx="174.45000000000002" ry="174.45000000000002" /><ellipse cx="250" cy="250" rx="170.70000000000002" ry="170.70000000000002" /><ellipse cx="250" cy="250" rx="168.20000000000002" ry="168.20000000000002" /><ellipse cx="250" cy="250" rx="164.20000000000002" ry="164.20000000000002" /><ellipse cx="250" cy="250" rx="163.45000000000002" ry="163.45000000000002" /><ellipse cx="250" cy="250" rx="161.55" ry="161.55" /><ellipse cx="250" cy="250" rx="158.20000000000002" ry="158.20000000000002" /><ellipse cx="250" cy="250" rx="156.8" ry="156.8" /><ellipse cx="250" cy="250" rx="152.55" ry="152.55" /><ellipse cx="250" cy="250" rx="150.15" ry="150.15" /><ellipse cx="250" cy="250" rx="147.6" ry="147.6" /><ellipse cx="250" cy="250" rx="146.9" ry="146.9" /><ellipse cx="250" cy="250" rx="143.4" ry="143.4" /><ellipse cx="250" cy="250" rx="140.20000000000002" ry="140.20000000000002" /><ellipse cx="250" cy="250" rx="137.3" ry="137.3" /><ellipse cx="250" cy="250" rx="137.25" ry="137.25" /><ellipse cx="250" cy="250" rx="132.95" ry="132.95" /><ellipse cx="250" cy="250" rx="131.75" ry="131.75" /><ellipse cx="250" cy="250" rx="130.9" ry="130.9" /><ellipse cx="250" cy="250" rx="127.0" ry="127.0" /><ellipse cx="250" cy="250" rx="124.65" ry="124.65" /><ellipse cx="250" cy="250" rx="123.2" ry="123.2" /><ellipse cx="250" cy="250" rx="118.65" ry="118.65" /><ellipse cx="250" cy="250" rx="113.80000000000001" ry="113.80000000000001" /><ellipse cx="250" cy="250" rx="112.65" ry="112.65" /><ellipse cx="250" cy="250" rx="109.75" ry="109.75" /><ellipse cx="250" cy="250" rx="106.3" ry="106.3" /><ellipse cx="250" cy="250" rx="104.3" ry="104.3" /><ellipse cx="250" cy="250" rx="104.2" ry="104.2" /><ellipse cx="250" cy="250" rx="103.55" ry="103.55" /><ellipse cx="250" cy="250" rx="103.35" ry="103.35" /><ellipse cx="250" cy="250" rx="102.05" ry="102.05" /><ellipse cx="250" cy="250" rx="101.7" ry="101.7" /><ellipse cx="250" cy="250" rx="97.2" ry="97.2" /><ellipse cx="250" cy="250" rx="95.45" ry="95.45" /><ellipse cx="250" cy="250" rx="91.35000000000001" ry="91.35000000000001" /><ellipse cx="250" cy="250" rx="86.80000000000001" ry="86.80000000000001" /><ellipse cx="250" cy="250" rx="82.30000000000001" ry="82.30000000000001" /><ellipse cx="250" cy="250" rx="80.4" ry="80.4" /><ellipse cx="250" cy="250" rx="76.25" ry="76.25" /><ellipse cx="250" cy="250" rx="75.8" ry="75.8" /><ellipse cx="250" cy="250" rx="74.14999999999999" ry="74.14999999999999" /><ellipse cx="250" cy="250" rx="71.24999999999999" ry="71.24999999999999" /><ellipse cx="250" cy="250" rx="69.19999999999999" ry="69.19999999999999" /><ellipse cx="250" cy="250" rx="66.14999999999999" ry="66.14999999999999" /><ellipse cx="250" cy="250" rx="62.599999999999994" ry="62.599999999999994" /><ellipse cx="250" cy="250" rx="59.64999999999999" ry="59.64999999999999" /><ellipse cx="250" cy="250" rx="55.69999999999999" ry="55.69999999999999" /><ellipse cx="250" cy="250" rx="50.79999999999999" ry="50.79999999999999" /><ellipse cx="250" cy="250" rx="47.34999999999999" ry="47.34999999999999" /><ellipse cx="250" cy="250" rx="44.09999999999999" ry="44.09999999999999" /><ellipse cx="250" cy="250" rx="40.899999999999984" ry="40.899999999999984" /><ellipse cx="250" cy="250" rx="39.999999999999986" ry="39.999999999999986" /><ellipse cx="250" cy="250" rx="38.749999999999986" ry="38.749999999999986" /><ellipse cx="250" cy="250" rx="36.399999999999984" ry="36.399999999999984" /><ellipse cx="250" cy="250" rx="31.749999999999986" ry="31.749999999999986" /><ellipse cx="250" cy="250" rx="29.049999999999986" ry="29.049999999999986" /><ellipse cx="250" cy="250" rx="27.749999999999986" ry="27.749999999999986" /><ellipse cx="250" cy="250" rx="22.899999999999984" ry="22.899999999999984" /><ellipse cx="250" cy="250" rx="20.499999999999986" ry="20.499999999999986" /><ellipse cx="250" cy="250" rx="16.099999999999987" ry="16.099999999999987" /><ellipse cx="250" cy="250" rx="13.999999999999988" ry="13.999999999999988" /><ellipse cx="250" cy="250" rx="11.149999999999988" ry="11.149999999999988" /><ellipse cx="250" cy="250" rx="10.849999999999987" ry="10.849999999999987" /><ellipse cx="250" cy="250" rx="9.349999999999987" ry="9.349999999999987" /><ellipse cx="250" cy="250" rx="4.449999999999987" ry="4.449999999999987" /><ellipse cx="250" cy="250" rx="0.39999999999998703" ry="0.39999999999998703" /><ellipse cx="250" cy="250" rx="397.5" ry="397.5" /><ellipse cx="250" cy="250" rx="393.2" ry="393.2" /><ellipse cx="250" cy="250" rx="390.34999999999997" ry="390.34999999999997" /><ellipse cx="250" cy="250" rx="388.95" ry="388.95" /><ellipse cx="250" cy="250" rx="387.4" ry="387.4" /><ellipse cx="250" cy="250" rx="384.7" ry="384.7" /><ellipse cx="250" cy="250" rx="384.55" ry="384.55" /><ellipse cx="250" cy="250" rx="380.0" ry="380.0" /><ellipse cx="250" cy="250" rx="376.6" ry="376.6" /><ellipse cx="250" cy="250" rx="376.40000000000003" ry="376.40000000000003" /><ellipse cx="250" cy="250" rx="372.6" ry="372.6" /><ellipse cx="250" cy="250" rx="371.0" ry="371.0" /><ellipse cx="250" cy="250" rx="366.75" ry="366.75" /><ellipse cx="250" cy="250" rx="362.2" ry="362.2" /><ellipse cx="250" cy="250" rx="359.15" ry="359.15" /><ellipse cx="250" cy="250" rx="356.45" ry="356.45" /><ellipse cx="250" cy="250" rx="353.84999999999997" ry="353.84999999999997" /><ellipse cx="250" cy="250" rx="352.54999999999995" ry="352.54999999999995" /><ellipse cx="250" cy="250" rx="347.84999999999997" ry="347.84999999999997" /><ellipse cx="250" cy="250" rx="343.84999999999997" ry="343.84999999999997" /><ellipse cx="250" cy="250" rx="340.79999999999995" ry="340.79999999999995" /><ellipse cx="250" cy="250" rx="337.09999999999997" ry="337.09999999999997" /><ellipse cx="250" cy="250" rx="336.09999999999997" ry="336.09999999999997" /><ellipse cx="250" cy="250" rx="334.79999999999995" ry="334.79999999999995" /><ellipse cx="250" cy="250" rx="332.59999999999997" ry="332.59999999999997" /><ellipse cx="250" cy="250" rx="331.79999999999995" ry="331.79999999999995" /><ellipse cx="250" cy="250" rx="327.15" ry="327.15" /><ellipse cx="250" cy="250" rx="323.95" ry="323.95" /><ellipse cx="250" cy="250" rx="321.2" ry="321.2" /><ellipse cx="250" cy="250" rx="320.45" ry="320.45" /><ellipse cx="250" cy="250" rx="318.45" ry="318.45" /><ellipse cx="250" cy="250" rx="315.05" ry="315.05" /><ellipse cx="250" cy="250" rx="313.0" ry="313.0" /><ellipse cx="250" cy="250" rx="309.85" ry="309.85" /><ellipse cx="250" cy="250" rx="308.0" ry="308.0" /><ellipse cx="250" cy="250" rx="307.3" ry="307.3" /><ellipse cx="250" cy="250" rx="302.90000000000003" ry="302.90000000000003" /><ellipse cx="250" cy="250" rx="301.8" ry="301.8" /><ellipse cx="250" cy="250" rx="297.75" ry="297.75" /><ellipse cx="250" cy="250" rx="296.0" ry="296.0" /><ellipse cx="250" cy="250" rx="293.7" ry="293.7" /><ellipse cx="250" cy="250" rx="290.09999999999997" ry="290.09999999999997" /><ellipse cx="250" cy="250" rx="288.34999999999997" ry="288.34999999999997" /><ellipse cx="250" cy="250" rx="284.59999999999997" ry="284.59999999999997" /><ellipse cx="250" cy="250" rx="283.74999999999994" ry="283.74999999999994" /><ellipse cx="250" cy="250" rx="280.84999999999997" ry="280.84999999999997" /><ellipse cx="250" cy="250" rx="279.54999999999995" ry="279.54999999999995" /><ellipse cx="250" cy="250" rx="276.15" ry="276.15" /><ellipse cx="250" cy="250" rx="271.95" ry="271.95" /><ellipse cx="250" cy="250" rx="267.0" ry="267.0" /><ellipse cx="250" cy="250" rx="262.15" ry="262.15" /><ellipse cx="250" cy="250" rx="259.59999999999997" ry="259.59999999999997" /><ellipse cx="250" cy="250" rx="259.29999999999995" ry="259.29999999999995" /><ellipse cx="250" cy="250" rx="258.94999999999993" ry="258.94999999999993" /><ellipse cx="250" cy="250" rx="256.24999999999994" ry="256.24999999999994" /><ellipse cx="250" cy="250" rx="253.49999999999994" ry="253.49999999999994" /><ellipse cx="250" cy="250" rx="253.19999999999993" ry="253.19999999999993" /><ellipse cx="250" cy="250" rx="252.09999999999994" ry="252.09999999999994" /><ellipse cx="250" cy="250" rx="251.09999999999994" ry="251.09999999999994" /><ellipse cx="250" cy="250" rx="250.99999999999994" ry="250.99999999999994" /><ellipse cx="250" cy="250" rx="246.54999999999995" ry="246.54999999999995" /><ellipse cx="250" cy="250" rx="241.74999999999994" ry="241.74999999999994" /><ellipse cx="250" cy="250" rx="240.89999999999995" ry="240.89999999999995" /><ellipse cx="250" cy="250" rx="238.89999999999995" ry="238.89999999999995" /><ellipse cx="250" cy="250" rx="238.19999999999996" ry="238.19999999999996" /><ellipse cx="250" cy="250" rx="233.59999999999997" ry="233.59999999999997" /><ellipse cx="250" cy="250" rx="231.24999999999997" ry="231.24999999999997" /><ellipse cx="250" cy="250" rx="230.29999999999998" ry="230.29999999999998" /><ellipse cx="250" cy="250" rx="226.29999999999998" ry="226.29999999999998" /><ellipse cx="250" cy="250" rx="222.74999999999997" ry="222.74999999999997" /><ellipse cx="250" cy="250" rx="219.84999999999997" ry="219.84999999999997" /><ellipse cx="250" cy="250" rx="215.24999999999997" ry="215.24999999999997" /><ellipse cx="250" cy="250" rx="210.99999999999997" ry="210.99999999999997" /><ellipse cx="250" cy="250" rx="209.89999999999998" ry="209.89999999999998" /><ellipse cx="250" cy="250" rx="205.95" ry="205.95" /><ellipse cx="250" cy="250" rx="204.0" ry="204.0" /><ellipse cx="250" cy="250" rx="203.55" ry="203.55" /><ellipse cx="250" cy="250" rx="201.70000000000002" ry="201.70000000000002" /><ellipse cx="250" cy="250" rx="200.85000000000002" ry="200.85000000000002" /><ellipse cx="250" cy="250" rx="197.75000000000003" ry="197.75000000000003" /><ellipse cx="250" cy="250" rx="194.50000000000003" ry="194.50000000000003" /><ellipse cx="250" cy="250" rx="192.15000000000003" ry="192.15000000000003" /><ellipse cx="250" cy="250" rx="187.85000000000002" ry="187.85000000000002" /><ellipse cx="250" cy="250" rx="185.05" ry="185.05" /><ellipse cx="250" cy="250" rx="183.70000000000002" ry="183.70000000000002" /><ellipse cx="250" cy="250" rx="180.55" ry="180.55" /><ellipse cx="250" cy="250" rx="175.75" ry="175.75" /><ellipse cx="250" cy="250" rx="174.0" ry="174.0" /><ellipse cx="250" cy="250" rx="173.15" ry="173.15" /><ellipse cx="250" cy="250" rx="170.75" ry="170.75" /><ellipse cx="250" cy="250" rx="170.45" ry="170.45" /><ellipse cx="250" cy="250" rx="166.85" ry="166.85" /><ellipse cx="250" cy="250" rx="165.1" ry="165.1" /><ellipse cx="250" cy="250" rx="163.7" ry="163.7" /><ellipse cx="250" cy="250" rx="159.04999999999998" ry="159.04999999999998" /><ellipse cx="250" cy="250" rx="155.35" ry="155.35" /><ellipse cx="250" cy="250" rx="151.5" ry="151.5" /><ellipse cx="250" cy="250" rx="149.3" ry="149.3" /><ellipse cx="250" cy="250" rx="148.25" ry="148.25" /><ellipse cx="250" cy="250" rx="148.1" ry="148.1" /><ellipse cx="250" cy="250" rx="143.85" ry="143.85" /><ellipse cx="250" cy="250" rx="141.0" ry="141.0" /><ellipse cx="250" cy="250" rx="140.15" ry="140.15" /><ellipse cx="250" cy="250" rx="139.5" ry="139.5" /><ellipse cx="250" cy="250" rx="136.45" ry="136.45" /><ellipse cx="250" cy="250" rx="136.04999999999998" ry="136.04999999999998" /><ellipse cx="250" cy="250" rx="132.95" ry="132.95" /><ellipse cx="250" cy="250" rx="129.04999999999998" ry="129.04999999999998" /><ellipse cx="250" cy="250" rx="124.34999999999998" ry="124.34999999999998" /><ellipse cx="250" cy="250" rx="123.34999999999998" ry="123.34999999999998" /><ellipse cx="250" cy="250" rx="122.49999999999999" ry="122.49999999999999" /><ellipse cx="250" cy="250" rx="121.94999999999999" ry="121.94999999999999" /><ellipse cx="250" cy="250" rx="118.04999999999998" ry="118.04999999999998" /><ellipse cx="250" cy="250" rx="113.49999999999999" ry="113.49999999999999" /><ellipse cx="250" cy="250" rx="109.29999999999998" ry="109.29999999999998" /><ellipse cx="250" cy="250" rx="106.34999999999998" ry="106.34999999999998" /><ellipse cx="250" cy="250" rx="101.54999999999998" ry="101.54999999999998" /><ellipse cx="250" cy="250" rx="100.84999999999998" ry="100.84999999999998" /><ellipse cx="250" cy="250" rx="98.04999999999998" ry="98.04999999999998" /><ellipse cx="250" cy="250" rx="97.59999999999998" ry="97.59999999999998" /><ellipse cx="250" cy="250" rx="95.89999999999998" ry="95.89999999999998" /><ellipse cx="250" cy="250" rx="93.14999999999998" ry="93.14999999999998" /><ellipse cx="250" cy="250" rx="91.54999999999998" ry="91.54999999999998" /><ellipse cx="250" cy="250" rx="88.19999999999999" ry="88.19999999999999" /><ellipse cx="250" cy="250" rx="87.04999999999998" ry="87.04999999999998" /><ellipse cx="250" cy="250" rx="84.74999999999999" ry="84.74999999999999" /><ellipse cx="250" cy="250" rx="80.89999999999999" ry="80.89999999999999" /><ellipse cx="250" cy="250" rx="77.99999999999999" ry="77.99999999999999" /><ellipse cx="250" cy="250" rx="76.44999999999999" ry="76.44999999999999" /><ellipse cx="250" cy="250" rx="73.24999999999999" ry="73.24999999999999" /><ellipse cx="250" cy="250" rx="68.34999999999998" ry="68.34999999999998" /><ellipse cx="250" cy="250" rx="65.44999999999997" ry="65.44999999999997" /><ellipse cx="250" cy="250" rx="64.64999999999998" ry="64.64999999999998" /><ellipse cx="250" cy="250" rx="63.84999999999998" ry="63.84999999999998" /><ellipse cx="250" cy="250" rx="60.84999999999998" ry="60.84999999999998" /><ellipse cx="250" cy="250" rx="58.44999999999998" ry="58.44999999999998" /><ellipse cx="250" cy="250" rx="57.899999999999984" ry="57.899999999999984" /><ellipse cx="250" cy="250" rx="53.149999999999984" ry="53.149999999999984" /><ellipse cx="250" cy="250" rx="50.59999999999999" ry="50.59999999999999" /><ellipse cx="250" cy="250" rx="47.44999999999999" ry="47.44999999999999" /><ellipse cx="250" cy="250" rx="45.64999999999999" ry="45.64999999999999" /><ellipse cx="250" cy="250" rx="44.29999999999999" ry="44.29999999999999" /><ellipse cx="250" cy="250" rx="42.29999999999999" ry="42.29999999999999" /><ellipse cx="250" cy="250" rx="40.84999999999999" ry="40.84999999999999" /><ellipse cx="250" cy="250" rx="40.29999999999999" ry="40.29999999999999" /><ellipse cx="250" cy="250" rx="36.99999999999999" ry="36.99999999999999" /><ellipse cx="250" cy="250" rx="33.849999999999994" ry="33.849999999999994" /><ellipse cx="250" cy="250" rx="29.149999999999995" ry="29.149999999999995" /><ellipse cx="250" cy="250" rx="27.499999999999996" ry="27.499999999999996" /><ellipse cx="250" cy="250" rx="25.899999999999995" ry="25.899999999999995" /><ellipse cx="250" cy="250" rx="25.699999999999996" ry="25.699999999999996" /><ellipse cx="250" cy="250" rx="24.599999999999994" ry="24.599999999999994" /><ellipse cx="250" cy="250" rx="21.249999999999993" ry="21.249999999999993" /><ellipse cx="250" cy="250" rx="20.14999999999999" ry="20.14999999999999" /><ellipse cx="250" cy="250" rx="17.79999999999999" ry="17.79999999999999" /><ellipse cx="250" cy="250" rx="13.09999999999999" ry="13.09999999999999" /><ellipse cx="250" cy="250" rx="10.399999999999991" ry="10.399999999999991" /><ellipse cx="250" cy="250" rx="8.949999999999992" ry="8.949999999999992" /><ellipse cx="250" cy="250" rx="8.299999999999992" ry="8.299999999999992" /><ellipse cx="250" cy="250" rx="4.699999999999992" ry="4.699999999999992" /><ellipse cx="250" cy="250" rx="1.5499999999999923" ry="1.5499999999999923" /><ellipse cx="250" cy="250" rx="399.25" ry="399.25" /><ellipse cx="250" cy="250" rx="396.7" ry="396.7" /><ellipse cx="250" cy="250" rx="392.9" ry="392.9" /><ellipse cx="250" cy="250" rx="392.15" ry="392.15" /><ellipse cx="250" cy="250" rx="388.0" ry="388.0" /><ellipse cx="250" cy="250" rx="384.15" ry="384.15" /><ellipse cx="250" cy="250" rx="382.15" ry="382.15" /><ellipse cx="250" cy="250" rx="380.09999999999997" ry="380.09999999999997" /><ellipse cx="250" cy="250" rx="375.49999999999994" ry="375.49999999999994" /><ellipse cx="250" cy="250" rx="371.79999999999995" ry="371.79999999999995" /><ellipse cx="250" cy="250" rx="367.04999999999995" ry="367.04999999999995" /><ellipse cx="250" cy="250" rx="362.94999999999993" ry="362.94999999999993" /><ellipse cx="250" cy="250" rx="358.79999999999995" ry="358.79999999999995" /><ellipse cx="250" cy="250" rx="355.04999999999995" ry="355.04999999999995" /><ellipse cx="250" cy="250" rx="353.24999999999994" ry="353.24999999999994" /><ellipse cx="250" cy="250" rx="349.24999999999994" ry="349.24999999999994" /><ellipse cx="250" cy="250" rx="348.99999999999994" ry="348.99999999999994" /><ellipse cx="250" cy="250" rx="344.19999999999993" ry="344.19999999999993" /><ellipse cx="250" cy="250" rx="343.54999999999995" ry="343.54999999999995" /><ellipse cx="250" cy="250" rx="338.84999999999997" ry="338.84999999999997" /><ellipse cx="250" cy="250" rx="336.2" ry="336.2" /><ellipse cx="250" cy="250" rx="332.5" ry="332.5" /><ellipse cx="250" cy="250" rx="330.65" ry="330.65" /><ellipse cx="250" cy="250" rx="328.7" ry="328.7" /><ellipse cx="250" cy="250" rx="325.0" ry="325.0" /><ellipse cx="250" cy="250" rx="324.95" ry="324.95" /><ellipse cx="250" cy="250" rx="321.7" ry="321.7" /><ellipse cx="250" cy="250" rx="319.75" ry="319.75" /><ellipse cx="250" cy="250" rx="318.5" ry="318.5" /><ellipse cx="250" cy="250" rx="314.8" ry="314.8" /><ellipse cx="250" cy="250" rx="310.25" ry="310.25" /><ellipse cx="250" cy="250" rx="309.35" ry="309.35" /><ellipse cx="250" cy="250" rx="309.15000000000003" ry="309.15000000000003" /><ellipse cx="250" cy="250" rx="307.50000000000006" ry="307.50000000000006" /><ellipse cx="250" cy="250" rx="306.6000000000001" ry="306.6000000000001" /><ellipse cx="250" cy="250" rx="305.55000000000007" ry="305.55000000000007" /><ellipse cx="250" cy="250" rx="304.3500000000001" ry="304.3500000000001" /><ellipse cx="250" cy="250" rx="300.9500000000001" ry="300.9500000000001" /><ellipse cx="250" cy="250" rx="300.2000000000001" ry="300.2000000000001" /><ellipse cx="250" cy="250" rx="299.6000000000001" ry="299.6000000000001" /><ellipse cx="250" cy="250" rx="295.9500000000001" ry="295.9500000000001" /><ellipse cx="250" cy="250" rx="293.1500000000001" ry="293.1500000000001" /><ellipse cx="250" cy="250" rx="293.1500000000001" ry="293.1500000000001" /><ellipse cx="250" cy="250" rx="290.2500000000001" ry="290.2500000000001" /><ellipse cx="250" cy="250" rx="288.4500000000001" ry="288.4500000000001" /><ellipse cx="250" cy="250" rx="286.0000000000001" ry="286.0000000000001" /><ellipse cx="250" cy="250" rx="283.2000000000001" ry="283.2000000000001" /><ellipse cx="250" cy="250" rx="282.4500000000001" ry="282.4500000000001" /><ellipse cx="250" cy="250" rx="279.6500000000001" ry="279.6500000000001" /><ellipse cx="250" cy="250" rx="276.8500000000001" ry="276.8500000000001" /><ellipse cx="250" cy="250" rx="273.30000000000007" ry="273.30000000000007" /><ellipse cx="250" cy="250" rx="271.3500000000001" ry="271.3500000000001" /><ellipse cx="250" cy="250" rx="268.6000000000001" ry="268.6000000000001" /><ellipse cx="250" cy="250" rx="267.1500000000001" ry="267.1500000000001" /><ellipse cx="250" cy="250" rx="262.55000000000007" ry="262.55000000000007" /><ellipse cx="250" cy="250" rx="258.3500000000001" ry="258.3500000000001" /><ellipse cx="250" cy="250" rx="257.7000000000001" ry="257.7000000000001" /><ellipse cx="250" cy="250" rx="257.3500000000001" ry="257.3500000000001" /><ellipse cx="250" cy="250" rx="255.70000000000007" ry="255.70000000000007" /><ellipse cx="250" cy="250" rx="252.80000000000007" ry="252.80000000000007" /><ellipse cx="250" cy="250" rx="249.45000000000007" ry="249.45000000000007" /><ellipse cx="250" cy="250" rx="249.45000000000007" ry="249.45000000000007" /><ellipse cx="250" cy="250" rx="244.95000000000007" ry="244.95000000000007" /><ellipse cx="250" cy="250" rx="240.75000000000009" ry="240.75000000000009" /><ellipse cx="250" cy="250" rx="236.0500000000001" ry="236.0500000000001" /><ellipse cx="250" cy="250" rx="235.1000000000001" ry="235.1000000000001" /><ellipse cx="250" cy="250" rx="234.0000000000001" ry="234.0000000000001" /><ellipse cx="250" cy="250" rx="231.2000000000001" ry="231.2000000000001" /><ellipse cx="250" cy="250" rx="227.9500000000001" ry="227.9500000000001" /><ellipse cx="250" cy="250" rx="226.5000000000001" ry="226.5000000000001" /><ellipse cx="250" cy="250" rx="223.1000000000001" ry="223.1000000000001" /><ellipse cx="250" cy="250" rx="218.5000000000001" ry="218.5000000000001" /><ellipse cx="250" cy="250" rx="216.4500000000001" ry="216.4500000000001" /><ellipse cx="250" cy="250" rx="216.2500000000001" ry="216.2500000000001" /><ellipse cx="250" cy="250" rx="215.3500000000001" ry="215.3500000000001" /><ellipse cx="250" cy="250" rx="214.0000000000001" ry="214.0000000000001" /><ellipse cx="250" cy="250" rx="209.9500000000001" ry="209.9500000000001" /><ellipse cx="250" cy="250" rx="206.4000000000001" ry="206.4000000000001" /><ellipse cx="250" cy="250" rx="202.35000000000008" ry="202.35000000000008" /><ellipse cx="250" cy="250" rx="200.60000000000008" ry="200.60000000000008" /><ellipse cx="250" cy="250" rx="197.05000000000007" ry="197.05000000000007" /><ellipse cx="250" cy="250" rx="196.50000000000006" ry="196.50000000000006" /><ellipse cx="250" cy="250" rx="192.30000000000007" ry="192.30000000000007" /><ellipse cx="250" cy="250" rx="191.45000000000007" ry="191.45000000000007" /><ellipse cx="250" cy="250" rx="190.30000000000007" ry="190.30000000000007" /><ellipse cx="250" cy="250" rx="188.35000000000008" ry="188.35000000000008" /><ellipse cx="250" cy="250" rx="188.25000000000009" ry="188.25000000000009" /><ellipse cx="250" cy="250" rx="184.3000000000001" ry="184.3000000000001" /><ellipse cx="250" cy="250" rx="183.4000000000001" ry="183.4000000000001" /><ellipse cx="250" cy="250" rx="179.7000000000001" ry="179.7000000000001" /><ellipse cx="250" cy="250" rx="179.3500000000001" ry="179.3500000000001" /><ellipse cx="250" cy="250" rx="177.65000000000012" ry="177.65000000000012" /><ellipse cx="250" cy="250" rx="173.3500000000001" ry="173.3500000000001" /><ellipse cx="250" cy="250" rx="173.0500000000001" ry="173.0500000000001" /><ellipse cx="250" cy="250" rx="170.7000000000001" ry="170.7000000000001" /><ellipse cx="250" cy="250" rx="170.5000000000001" ry="170.5000000000001" /><ellipse cx="250" cy="250" rx="167.65000000000012" ry="167.65000000000012" /><ellipse cx="250" cy="250" rx="166.6000000000001" ry="166.6000000000001" /><ellipse cx="250" cy="250" rx="162.40000000000012" ry="162.40000000000012" /><ellipse cx="250" cy="250" rx="159.3500000000001" ry="159.3500000000001" /><ellipse cx="250" cy="250" rx="155.2000000000001" ry="155.2000000000001" /><ellipse cx="250" cy="250" rx="153.4000000000001" ry="153.4000000000001" /><ellipse cx="250" cy="250" rx="149.50000000000009" ry="149.50000000000009" /><ellipse cx="250" cy="250" rx="148.60000000000008" ry="148.60000000000008" /><ellipse cx="250" cy="250" rx="146.30000000000007" ry="146.30000000000007" /><ellipse cx="250" cy="250" rx="143.30000000000007" ry="143.30000000000007" /><ellipse cx="250" cy="250" rx="142.05000000000007" ry="142.05000000000007" /><ellipse cx="250" cy="250" rx="141.25000000000006" ry="141.25000000000006" /><ellipse cx="250" cy="250" rx="136.40000000000006" ry="136.40000000000006" /><ellipse cx="250" cy="250" rx="132.70000000000007" ry="132.70000000000007" /><ellipse cx="250" cy="250" rx="132.25000000000009" ry="132.25000000000009" /><ellipse cx="250" cy="250" rx="131.95000000000007" ry="131.95000000000007" /><ellipse cx="250" cy="250" rx="128.30000000000007" ry="128.30000000000007" /><ellipse cx="250" cy="250" rx="125.15000000000006" ry="125.15000000000006" /><ellipse cx="250" cy="250" rx="120.70000000000006" ry="120.70000000000006" /><ellipse cx="250" cy="250" rx="116.25000000000006" ry="116.25000000000006" /><ellipse cx="250" cy="250" rx="114.00000000000006" ry="114.00000000000006" /><ellipse cx="250" cy="250" rx="109.35000000000005" ry="109.35000000000005" /><ellipse cx="250" cy="250" rx="108.40000000000005" ry="108.40000000000005" /><ellipse cx="250" cy="250" rx="106.50000000000004" ry="106.50000000000004" /><ellipse cx="250" cy="250" rx="102.45000000000005" ry="102.45000000000005" /><ellipse cx="250" cy="250" rx="97.80000000000004" ry="97.80000000000004" /><ellipse cx="250" cy="250" rx="96.15000000000003" ry="96.15000000000003" /><ellipse cx="250" cy="250" rx="92.40000000000003" ry="92.40000000000003" /><ellipse cx="250" cy="250" rx="89.10000000000004" ry="89.10000000000004" /><ellipse cx="250" cy="250" rx="85.85000000000004" ry="85.85000000000004" /><ellipse cx="250" cy="250" rx="85.55000000000004" ry="85.55000000000004" /><ellipse cx="250" cy="250" rx="84.20000000000005" ry="84.20000000000005" /><ellipse cx="250" cy="250" rx="79.80000000000004" ry="79.80000000000004" /><ellipse cx="250" cy="250" rx="79.65000000000003" ry="79.65000000000003" /><ellipse cx="250" cy="250" rx="78.90000000000003" ry="78.90000000000003" /><ellipse cx="250" cy="250" rx="75.75000000000003" ry="75.75000000000003" /><ellipse cx="250" cy="250" rx="75.70000000000003" ry="75.70000000000003" /><ellipse cx="250" cy="250" rx="73.70000000000003" ry="73.70000000000003" /><ellipse cx="250" cy="250" rx="69.85000000000004" ry="69.85000000000004" /><ellipse cx="250" cy="250" rx="66.20000000000003" ry="66.20000000000003" /><ellipse cx="250" cy="250" rx="64.10000000000004" ry="64.10000000000004" /><ellipse cx="250" cy="250" rx="62.35000000000004" ry="62.35000000000004" /><ellipse cx="250" cy="250" rx="58.95000000000004" ry="58.95000000000004" /><ellipse cx="250" cy="250" rx="56.55000000000004" ry="56.55000000000004" /><ellipse cx="250" cy="250" rx="53.35000000000004" ry="53.35000000000004" /><ellipse cx="250" cy="250" rx="52.900000000000034" ry="52.900000000000034" /><ellipse cx="250" cy="250" rx="52.400000000000034" ry="52.400000000000034" /><ellipse cx="250" cy="250" rx="52.05000000000003" ry="52.05000000000003" /><ellipse cx="250" cy="250" rx="49.35000000000003" ry="49.35000000000003" /><ellipse cx="250" cy="250" rx="47.45000000000003" ry="47.45000000000003" /><ellipse cx="250" cy="250" rx="46.55000000000003" ry="46.55000000000003" /><ellipse cx="250" cy="250" rx="42.400000000000034" ry="42.400000000000034" /><ellipse cx="250" cy="250" rx="40.500000000000036" ry="40.500000000000036" /><ellipse cx="250" cy="250" rx="38.80000000000003" ry="38.80000000000003" /><ellipse cx="250" cy="250" rx="34.05000000000003" ry="34.05000000000003" /><ellipse cx="250" cy="250" rx="32.250000000000036" ry="32.250000000000036" /><ellipse cx="250" cy="250" rx="28.600000000000037" ry="28.600000000000037" /><ellipse cx="250" cy="250" rx="25.100000000000037" ry="25.100000000000037" /><ellipse cx="250" cy="250" rx="23.45000000000004" ry="23.45000000000004" /><ellipse cx="250" cy="250" rx="23.25000000000004" ry="23.25000000000004" /><ellipse cx="250" cy="250" rx="19.85000000000004" ry="19.85000000000004" /><ellipse cx="250" cy="250" rx="17.700000000000042" ry="17.700000000000042" /><ellipse cx="250" cy="250" rx="15.150000000000041" ry="15.150000000000041" /><ellipse cx="250" cy="250" rx="14.200000000000042" ry="14.200000000000042" /><ellipse cx="250" cy="250" rx="12.150000000000041" ry="12.150000000000041" /><ellipse cx="250" cy="250" rx="11.10000000000004" ry="11.10000000000004" /><ellipse cx="250" cy="250" rx="7.500000000000041" ry="7.500000000000041" /><ellipse cx="250" cy="250" rx="4.1000000000000405" ry="4.1000000000000405" /><ellipse cx="250" cy="250" rx="0.9500000000000406" ry="0.9500000000000406" /></svg>